<?xml version="1.0" standalone="no"?>
<!DOCTYPE svg PUBLIC "-//W3C//DTD SVG 20010904//EN"
 "http://www.w3.org/TR/2001/REC-SVG-20010904/DTD/svg10.dtd">
<svg version="1.0" xmlns="http://www.w3.org/2000/svg"
 width="1066.000000pt" height="800.000000pt" viewBox="0 0 1066.000000 800.000000"
 preserveAspectRatio="xMidYMid meet">

<g transform="translate(0.000000,800.000000) scale(0.100000,-0.100000)"
fill="#000000" stroke="none">
<path d="M4948 6137 c-65 -25 -125 -66 -173 -119 -84 -93 -115 -184 -115 -336
0 -154 -39 -297 -127 -465 -29 -55 -62 -93 -164 -189 -183 -173 -214 -240
-264 -563 -33 -215 -32 -210 -70 -255 -50 -60 -70 -119 -55 -164 16 -51 62
-86 112 -86 30 0 58 11 112 44 39 24 95 52 125 61 76 25 110 61 188 204 59
107 78 133 142 190 232 207 291 278 291 355 0 86 -69 173 -155 195 -27 6 -55
17 -63 23 -49 41 -58 161 -22 301 16 65 18 90 10 111 -11 30 -6 46 15 46 35 0
79 59 151 202 83 166 85 168 190 176 48 3 69 0 101 -16 46 -24 94 -75 123
-132 l20 -39 -24 -85 c-31 -106 -41 -192 -27 -229 l11 -28 37 26 c70 47 103
27 103 -60 0 -50 -29 -119 -55 -129 -9 -3 -31 -6 -48 -6 -28 0 -34 -5 -51 -45
-10 -25 -36 -61 -58 -80 l-41 -34 7 -93 c10 -124 32 -231 62 -295 60 -125 213
-200 393 -191 69 3 88 9 199 62 151 72 199 80 255 42 21 -14 40 -26 42 -26 3
0 5 15 5 34 0 65 -52 104 -208 157 -121 41 -195 97 -238 181 -37 73 -33 133
16 232 63 127 84 226 77 371 -8 198 -59 309 -193 419 -102 84 -316 186 -390
186 -12 0 -37 12 -55 27 -26 22 -44 28 -93 30 -34 2 -77 -3 -98 -10z"/>
<path d="M3703 5208 c-19 -26 -82 -135 -131 -228 -27 -52 -63 -120 -80 -150
l-32 -56 29 -11 29 -11 53 99 c37 70 63 105 85 118 30 18 101 127 116 179 15
51 -40 98 -69 60z m56 -65 c-14 -38 -92 -163 -101 -163 -4 0 13 35 38 77 25
43 50 86 55 95 15 28 20 21 8 -9z"/>
<path d="M5735 4039 c-220 -51 -774 -172 -805 -176 -19 -2 -201 18 -405 45
-203 27 -372 48 -375 45 -4 -4 146 -623 153 -630 4 -4 511 -71 515 -68 1 1
-25 19 -58 39 -74 46 -112 94 -114 143 -1 32 3 37 29 45 86 26 218 -6 349 -84
44 -27 90 -50 101 -51 31 -3 30 30 -4 85 -68 109 -20 121 80 20 90 -90 169
-131 270 -139 71 -5 157 9 422 68 l48 11 -6 42 c-2 22 -19 160 -35 306 -17
146 -33 277 -36 293 -7 32 -16 33 -129 6z"/>
<path d="M1091 3557 c-12 -19 -15 -19 -94 5 -25 8 -41 8 -48 1 -7 -7 13 -14
62 -22 58 -9 75 -9 88 2 9 7 31 12 49 11 42 -3 32 13 -12 18 -25 3 -37 -1 -45
-15z"/>
<path d="M980 3468 c0 -15 53 -14 145 1 42 7 35 8 -47 7 -54 0 -98 -4 -98 -8z"/>
<path d="M1055 3412 c-11 -2 -26 -9 -33 -14 -6 -6 -27 -8 -45 -5 -29 5 -30 5
-9 -5 17 -9 34 -9 65 -1 31 9 44 9 49 0 9 -15 67 -16 79 0 8 9 6 12 -8 12 -40
1 -58 4 -68 11 -5 3 -19 4 -30 2z"/>
<path d="M4273 3043 c-36 -62 -79 -177 -106 -280 -19 -78 -22 -113 -21 -308 0
-215 1 -224 37 -395 42 -200 102 -427 118 -447 9 -10 75 -13 314 -13 l302 0 7
123 c6 116 19 227 32 291 l6 30 29 -35 c114 -134 218 -290 242 -360 l15 -44
121 0 c67 0 235 1 374 3 l254 2 -4 33 c-23 179 -87 456 -142 605 -64 173 -105
385 -117 600 -4 67 -9 122 -10 122 -2 0 -41 -11 -87 -24 -45 -13 -137 -33
-204 -45 -380 -64 -740 -17 -1040 138 l-94 48 -26 -44z"/>
<path d="M900 2243 c-11 -8 -20 -19 -20 -25 0 -6 9 -3 20 7 18 17 25 17 75 5
30 -7 57 -11 60 -8 3 3 -22 12 -55 20 -52 12 -63 13 -80 1z"/>
<path d="M1056 2231 c-4 -5 12 -7 36 -4 57 8 61 13 10 13 -22 0 -43 -4 -46 -9z"/>
<path d="M2376 2171 c-7 -11 -16 -12 -111 -11 -33 1 -57 -2 -53 -5 10 -10 250
-14 289 -5 29 7 24 8 -31 9 -37 1 -71 6 -77 12 -8 8 -13 8 -17 0z"/>
<path d="M919 2123 c-34 -42 -40 -55 -10 -24 l32 33 24 -22 c21 -20 28 -22 50
-12 41 19 64 14 96 -20 34 -38 39 -30 7 12 -17 23 -30 30 -56 30 -18 0 -42 -4
-52 -10 -13 -7 -24 -5 -43 10 -31 24 -30 24 -48 3z"/>
<path d="M900 1979 c0 -5 55 -9 123 -8 67 0 118 2 112 4 -24 8 -235 12 -235 4z"/>
<path d="M7460 1945 c-17 -25 -27 -45 -23 -45 4 0 4 -4 -2 -8 -17 -12 -41 -47
-27 -38 7 4 15 1 18 -8 10 -25 38 -18 56 13 14 26 14 29 1 24 -13 -5 -14 -3
-3 17 10 18 14 20 21 9 7 -11 9 -10 9 4 0 11 -8 17 -22 17 -27 0 -19 8 13 13
25 4 33 26 14 39 -18 13 -23 9 -55 -37z m48 22 c8 -10 6 -13 -7 -13 -11 0 -17
6 -14 13 3 7 6 13 8 13 1 0 7 -6 13 -13z m-38 -51 c0 -3 -4 -8 -10 -11 -5 -3
-10 -1 -10 4 0 6 5 11 10 11 6 0 10 -2 10 -4z m0 -61 c0 -2 -9 -3 -20 -2 -11
1 -20 7 -20 14 0 11 5 11 20 3 11 -6 20 -13 20 -15z"/>
<path d="M925 1864 c-25 -12 -25 -13 -5 -8 14 4 69 7 122 8 53 1 99 4 103 8
13 13 -191 6 -220 -8z"/>
<path d="M7384 1819 c-20 -23 -12 -26 10 -3 9 8 16 11 16 4 0 -6 -11 -15 -25
-22 -13 -6 -22 -15 -19 -20 3 -4 9 -6 14 -3 5 3 12 1 15 -5 4 -6 1 -9 -6 -8
-6 2 -14 -3 -17 -11 -3 -8 0 -11 7 -7 6 4 11 3 11 -3 0 -5 -9 -9 -19 -8 -16 1
-18 5 -10 19 6 12 6 18 -1 18 -5 0 -10 -7 -10 -15 0 -24 -1 -29 -9 -40 -4 -5
-11 -18 -15 -29 -5 -15 -2 -17 14 -13 11 3 20 1 20 -5 0 -5 -10 -8 -22 -6 -17
2 -22 9 -20 26 3 22 1 22 -98 22 l-101 0 16 -30 16 -30 -60 0 c-57 0 -61 2
-76 29 -9 19 -21 28 -32 26 -10 -2 -30 -6 -45 -10 l-28 -5 0 -300 0 -299 51
-15 c97 -29 210 -40 290 -28 79 12 136 27 156 40 21 13 46 584 27 602 -5 5
-20 10 -33 12 -24 3 -25 3 -5 22 10 11 19 22 19 25 1 3 8 20 17 37 17 30 17
31 -7 42 -19 9 -26 7 -41 -9z m37 -22 c-10 -9 -11 -8 -5 6 3 10 9 15 12 12 3
-3 0 -11 -7 -18z"/>
<path d="M2735 1660 c-5 -9 -28 -11 -79 -6 l-71 5 59 -16 c56 -15 62 -14 93 3
29 15 40 16 81 6 95 -25 160 -31 199 -20 21 6 63 14 93 18 l55 7 -45 2 c-25 0
-70 -5 -100 -13 -30 -8 -59 -11 -65 -8 -5 4 -32 9 -60 13 -27 4 -73 10 -101
14 -37 5 -53 4 -59 -5z"/>
<path d="M2950 1510 c-28 -16 -30 -19 -10 -15 34 8 54 7 135 -5 54 -8 72 -7
82 3 11 11 0 13 -62 12 -52 -1 -79 3 -86 12 -14 17 -17 16 -59 -7z"/>
<path d="M3672 1455 c-72 -101 -72 -102 -20 -110 35 -6 698 -152 776 -172 35
-9 44 -34 28 -88 -14 -46 -14 -47 5 -29 11 10 34 46 51 81 25 51 32 81 36 144
4 68 2 79 -12 79 -9 0 -190 38 -402 85 -212 47 -391 85 -397 85 -7 0 -36 -34
-65 -75z"/>
<path d="M2866 1501 c-3 -5 6 -8 20 -8 19 0 22 2 13 8 -18 11 -26 11 -33 0z"/>
<path d="M5620 1298 c0 -6 9 -8 20 -5 11 3 20 1 20 -4 0 -10 -71 -6 -89 6 -6
3 -11 1 -11 -4 0 -6 -5 -11 -11 -11 -5 0 -7 5 -4 10 7 11 -35 7 -54 -4 -5 -4
-12 -2 -16 3 -8 14 -115 12 -115 -3 0 -8 -3 -8 -8 1 -4 7 -17 11 -29 10 -12 0
-20 -4 -18 -7 2 -3 -68 -4 -156 -3 -150 1 -159 0 -165 -19 -3 -11 -3 -22 0
-25 3 -4 6 1 6 10 0 9 5 17 10 17 7 0 8 -6 2 -16 -5 -9 -7 -26 -4 -37 4 -15 2
-18 -9 -12 -8 5 8 -14 35 -41 27 -27 53 -48 58 -46 5 1 7 -2 4 -6 -13 -22 31
-39 99 -40 49 -1 64 1 50 8 -19 8 -19 9 3 9 12 1 22 -3 22 -7 0 -5 73 -7 163
-6 265 5 306 8 312 23 4 9 0 11 -12 7 -10 -4 -14 -4 -10 1 5 4 26 8 47 8 29 0
36 -3 28 -12 -6 -7 -9 -13 -7 -13 2 -1 37 -2 77 -4 56 -2 72 1 72 11 0 8 -4
12 -8 9 -4 -2 -9 4 -9 15 -1 10 3 19 8 19 6 0 7 -5 4 -10 -3 -6 1 -13 10 -16
9 -4 14 -12 12 -18 -3 -7 12 -12 39 -13 l44 -1 -27 21 c-16 12 -34 27 -41 34
-7 7 -20 13 -28 13 -8 0 -12 5 -9 10 3 6 2 10 -3 10 -5 0 -22 13 -38 30 -16
16 -33 30 -39 30 -5 0 -19 12 -32 26 -13 16 -28 24 -38 21 -8 -4 -14 -3 -14 1
4 26 -5 30 -71 30 -39 0 -70 -5 -70 -10z m100 -8 c0 -5 -10 -10 -22 -9 -22 0
-22 1 -3 9 11 5 21 9 23 9 1 1 2 -3 2 -9z m30 0 c0 -5 -5 -10 -11 -10 -5 0 -7
5 -4 10 3 6 8 10 11 10 2 0 4 -4 4 -10z m-706 -102 c-4 -6 0 -14 7 -19 11 -7
11 -9 -2 -9 -9 0 -19 7 -23 15 -3 8 -1 15 5 15 6 0 7 5 3 12 -4 7 -3 8 5 4 6
-4 8 -12 5 -18z m856 -59 c0 -5 -4 -9 -10 -9 -5 0 -10 7 -10 16 0 8 5 12 10 9
6 -3 10 -10 10 -16z m-590 -24 c0 -5 -8 -10 -18 -11 -10 -1 -19 4 -19 11 0 7
9 12 19 11 10 -1 18 -5 18 -11z m295 4 c-4 -6 -117 1 -125 8 -2 2 25 3 62 1
36 -1 65 -5 63 -9z m35 2 c0 -6 -4 -12 -8 -15 -5 -3 -9 1 -9 9 0 8 4 15 9 15
4 0 8 -4 8 -9z m-485 -11 c-4 -6 8 -11 27 -11 31 -2 32 -2 5 -6 -16 -3 -36 -2
-45 2 -14 5 -14 7 -2 15 19 12 23 12 15 0z m359 -8 c14 3 31 1 38 -3 8 -6 1
-9 -22 -9 -47 0 -81 10 -74 22 3 5 12 4 20 -3 8 -6 25 -9 38 -7z m386 10 c0
-4 -17 -6 -37 -4 -59 5 -63 10 -10 11 26 1 47 -3 47 -7z m90 4 c0 -2 -7 -6
-15 -10 -8 -3 -15 -1 -15 4 0 6 7 10 15 10 8 0 15 -2 15 -4z m-556 -17 c3 -3
-21 -7 -55 -8 -33 -1 -59 2 -56 6 6 9 102 11 111 2z"/>
<path d="M4920 1270 c-13 -9 -13 -10 0 -10 9 0 23 -9 33 -20 9 -11 21 -20 27
-20 6 0 5 8 -2 20 -7 11 -19 20 -26 20 -7 0 -10 5 -7 10 8 13 -5 13 -25 0z"/>
<path d="M5740 1089 c0 -5 5 -7 10 -4 6 3 10 8 10 11 0 2 -4 4 -10 4 -5 0 -10
-5 -10 -11z"/>
</g>
</svg>
